# xmcd CD database file
#
# Track frame offsets:
#	150
#	14488
#	26157
#	41437
#	54663
#	69973
#	83780
#	101352
#	115927
#	132750
#	147062
#	163817
#
# Disc length: 2375 seconds
#
# Revision: 0
# Processed by: cddbd v1.4PL0 Copyright (c) Steve Scherf et al.
# Submitted via: CDex 1.40Beta8
#
DISCID=9a09450c
DTITLE=Linda Trengereid - My Dreams Of You
DYEAR=2001
DGENRE=Country
TTITLE0=Nobody Can Away My Dreams
TTITLE1=Chattanoogie Shoshine Boy
TTITLE2=Help Me Though The Nigh
TTITLE3=Baby's Learning How To Walk
TTITLE4=Thank God, It's Monday
TTITLE5=The Boy In San Antone
TTITLE6=This Old Jukebox
TTITLE7=Love Nor  Money
TTITLE8=Too Close To That Old Flame
TTITLE9=The Banks Of Ohio
TTITLE10=The Place In My Dream
TTITLE11=You're Gonna Make A Fool Of Me
EXTD=YEAR: 2001 ID3G: 2
EXTT0=
EXTT1=
EXTT2=
EXTT3=
EXTT4=
EXTT5=
EXTT6=
EXTT7=
EXTT8=
EXTT9=
EXTT10=
EXTT11=
PLAYORDER=
